<svg xmlns="http://www.w3.org/2000/svg" viewBox="0 0 512 512" width="512" height="512"><defs>
<linearGradient id="face" x1="0.1" y1="0" x2="0.9" y2="1">
  <stop offset="0" stop-color="#b6f2d8"/><stop offset="34%" stop-color="#cfe6fb"/>
  <stop offset="68%" stop-color="#ded0fa"/><stop offset="100%" stop-color="#f8cfe9"/></linearGradient>
<linearGradient id="faceB" x1="0.9" y1="0" x2="0.1" y2="1">
  <stop offset="0" stop-color="#f8cfe9"/><stop offset="50%" stop-color="#cfe6fb"/>
  <stop offset="100%" stop-color="#b6f2d8"/></linearGradient>
<radialGradient id="tile" cx="0.5" cy="0.36" r="0.72">
  <stop offset="0" stop-color="#cfe6fb" stop-opacity="0.10"/>
  <stop offset="1" stop-color="#cfe6fb" stop-opacity="0"/></radialGradient>
<radialGradient id="ground" cx="0.5" cy="0.5" r="0.5">
  <stop offset="0" stop-color="#000000" stop-opacity="0.45"/>
  <stop offset="1" stop-color="#000000" stop-opacity="0"/></radialGradient>
</defs><rect width="512" height="512" rx="116" fill="#121719"/><rect width="512" height="512" rx="116" fill="url(#tile)"/><ellipse cx="256" cy="424" rx="150" ry="30" fill="url(#ground)"/>
  <g fill="none" stroke="#b6f2d8" stroke-linecap="round">
    <circle cx="248" cy="228" r="148" stroke-width="6" opacity="0.14"/>
    <circle cx="248" cy="228" r="116" stroke-width="6" opacity="0.26"/>
    <circle cx="248" cy="228" r="84" stroke-width="7" opacity="0.44"/>
  </g>
  <g transform="rotate(-7 256 246)">
    <rect x="130" y="178" width="264" height="160" rx="32" fill="#243033"/>
    <rect x="118" y="166" width="264" height="160" rx="32" fill="url(#faceB)"/>
    <rect x="146" y="200" width="118" height="24" rx="12" fill="#0E1315" opacity="0.34"/>
    <rect x="146" y="240" width="76" height="16" rx="8" fill="#0E1315" opacity="0.22"/>
  </g>
  <g transform="translate(322 300) rotate(14)" stroke="#121719" stroke-width="7">
    <ellipse cx="-44" cy="-24" rx="18" ry="22" fill="#f8cfe9"/>
    <ellipse cx="-15" cy="-46" rx="18" ry="22" fill="#f8cfe9"/>
    <ellipse cx="19" cy="-46" rx="18" ry="22" fill="#f8cfe9"/>
    <ellipse cx="48" cy="-24" rx="18" ry="22" fill="#f8cfe9"/>
    <ellipse cx="0" cy="30" rx="56" ry="48" fill="#f8cfe9"/>
    <ellipse cx="0" cy="26" rx="27" ry="21" fill="#ded0fa" stroke="none"/>
  </g></svg>